<svg xmlns="http://www.w3.org/2000/svg" width="115" height="70" viewBox="0 0 115.43 70.66"><defs><style>.cls-1{fill:#c4ee00}.cls-2{fill:#2d2d2d}</style></defs><g id="Layer_2" data-name="Layer 2"><g id="Layer_6" data-name="Layer 6"><path class="cls-1" d="M104.32 63.07h-15V40.62H82v22.45H67V7.2h15V27h7.26V7.2h15zM46.87 63.07h-15V40.62h-7.3v22.45h-15V7.2h15V27h7.26V7.2h15z"/><path class="cls-2" d="M20.17 30.16h-8.12V18H8.13v12.16H0V0h8.13v10.68h3.92V0h8.12zM46.05 30.16h-8.4L37 26.32h-5.4l-.68 3.84h-8.4L29.45 0h9.68zM36 19.88l-1.16-8.12q-.12-.76-.24-1.8c-.08-.69-.19-1.61-.32-2.76Q34.1 8.92 34 10c-.07.69-.14 1.29-.22 1.8l-1.24 8.12zM56.49 30.16h-8.12V0h7.88a17.48 17.48 0 0 1 5.52.76 10.56 10.56 0 0 1 3.76 2.1 7.78 7.78 0 0 1 2.16 3.24 12.42 12.42 0 0 1 .68 4.18 13.14 13.14 0 0 1-.6 4.08 7.88 7.88 0 0 1-1.9 3.16 8.72 8.72 0 0 1-3.3 2 14.19 14.19 0 0 1-4.8.72h-1.28zm0-16.56h.76a2.92 2.92 0 0 0 2.22-.9 3.48 3.48 0 0 0 .86-2.5 4.05 4.05 0 0 0-.78-2.46 2.67 2.67 0 0 0-2.3-1.06h-.76zM79.33 30.16h-8.12V0h7.88a17.48 17.48 0 0 1 5.52.76 10.56 10.56 0 0 1 3.76 2.1 7.78 7.78 0 0 1 2.16 3.24 12.42 12.42 0 0 1 .68 4.18 13.14 13.14 0 0 1-.6 4.08 7.88 7.88 0 0 1-1.9 3.16 8.72 8.72 0 0 1-3.3 2 14.19 14.19 0 0 1-4.8.72h-1.28zm0-16.56h.76a2.92 2.92 0 0 0 2.22-.9 3.48 3.48 0 0 0 .86-2.5 4.05 4.05 0 0 0-.78-2.46 2.67 2.67 0 0 0-2.3-1.06h-.76zM107.57 30.16h-8.16V17.4L91.93 0h8.48l1.48 4.48c.29.85.55 1.69.78 2.5s.43 1.59.62 2.34l.6-2.34c.21-.81.47-1.65.76-2.5L106.13 0h8.44l-7 17.4zM20.47 70.15h-8.24V58h-4v12.15H0V40h8.25v10.66h4V40h8.24zM47.32 55.07a23 23 0 0 1-.83 6.36 15.34 15.34 0 0 1-2.38 4.94 10.9 10.9 0 0 1-3.7 3.18 10.76 10.76 0 0 1-9.52 0 11 11 0 0 1-3.68-3.18 15.12 15.12 0 0 1-2.37-4.94 24.54 24.54 0 0 1 0-12.73 15 15 0 0 1 2.37-4.93 11.09 11.09 0 0 1 3.68-3.2 10.51 10.51 0 0 1 9.52 0 11 11 0 0 1 3.7 3.2 15.18 15.18 0 0 1 2.38 4.93 23.12 23.12 0 0 1 .83 6.37zm-8.57 0a17.07 17.07 0 0 0-.81-6c-.55-1.39-1.3-2.08-2.28-2.08s-1.73.69-2.27 2.08a16.8 16.8 0 0 0-.82 6 16.72 16.72 0 0 0 .82 5.93c.54 1.37 1.3 2.06 2.27 2.06s1.73-.69 2.28-2.06a17 17 0 0 0 .81-5.93zM73.39 55.07a22.67 22.67 0 0 1-.83 6.36 15.32 15.32 0 0 1-2.37 4.94 11 11 0 0 1-3.7 3.18 10.78 10.78 0 0 1-9.53 0 11 11 0 0 1-3.67-3.18 15.34 15.34 0 0 1-2.38-4.94 24.82 24.82 0 0 1 0-12.73 15.18 15.18 0 0 1 2.38-4.93 11.05 11.05 0 0 1 3.71-3.2 10.53 10.53 0 0 1 9.53 0 11.05 11.05 0 0 1 3.7 3.2 15.17 15.17 0 0 1 2.37 4.93 22.74 22.74 0 0 1 .79 6.37zm-8.57 0a17.07 17.07 0 0 0-.81-6c-.54-1.39-1.3-2.08-2.27-2.08s-1.74.69-2.28 2.08a17.07 17.07 0 0 0-.81 6 17 17 0 0 0 .81 5.93c.54 1.37 1.3 2.06 2.28 2.06S63.47 62.38 64 61a17 17 0 0 0 .82-5.93zM85.17 70.15h-8.24V40h8a18.29 18.29 0 0 1 5.6.75 10.54 10.54 0 0 1 3.82 2.11 7.87 7.87 0 0 1 2.2 3.24 12.1 12.1 0 0 1 .69 4.18 13.13 13.13 0 0 1-.61 4.08 8 8 0 0 1-1.93 3.16 8.85 8.85 0 0 1-3.35 2 14.68 14.68 0 0 1-4.88.72h-1.3zm0-16.56h.77a3.05 3.05 0 0 0 2.26-.9 3.46 3.46 0 0 0 .87-2.5 4 4 0 0 0-.79-2.46 2.74 2.74 0 0 0-2.34-1.07h-.77zM99.47 60c1.65 2.18 3.41 3.28 5.28 3.28a2.6 2.6 0 0 0 1.73-.57 1.75 1.75 0 0 0 .67-1.39 3.15 3.15 0 0 0-1.47-2.36l-1.34-1a14.74 14.74 0 0 1-3.83-4 8.67 8.67 0 0 1-1.16-4.5 10.3 10.3 0 0 1 .71-3.88 9.67 9.67 0 0 1 2-3.14 9.53 9.53 0 0 1 3-2.13 8.86 8.86 0 0 1 3.66-.77 12.79 12.79 0 0 1 5.86 1.46v9.2a8.91 8.91 0 0 0-2.3-2.42 4.32 4.32 0 0 0-2.53-.9 2.32 2.32 0 0 0-1.57.54 1.65 1.65 0 0 0-.63 1.29 3.22 3.22 0 0 0 1.67 2.41l1.34 1a13.12 13.12 0 0 1 3.74 3.82 8.87 8.87 0 0 1 1.13 4.54 11.11 11.11 0 0 1-.73 4.1 10.3 10.3 0 0 1-2 3.24 8.79 8.79 0 0 1-3.09 2.14 10.1 10.1 0 0 1-3.92.75 17.18 17.18 0 0 1-6.21-1.27z"/></g></g></svg>