<svg xmlns="http://www.w3.org/2000/svg" width="510" height="724"><g data-name="Group 14"><path data-name="Rectangle 15" fill="#fff" d="M0 0h509.336v165.717H0z"/><path data-name="Path 54" d="M95.019 140.941h-34.63V89.255H43.671v51.689H9.041V12.315h34.63v45.548h16.718V12.315h34.63zm110.372 0h-35.824l-2.9-16.377h-23.03l-2.9 16.377h-35.826l29.685-128.626h41.283zm-42.818-43.842l-4.947-34.63q-.512-3.241-1.024-7.677t-1.365-11.771q-.853 7.335-1.279 11.771t-.938 7.677l-5.288 34.63zm87.338 43.842h-34.63V12.315h33.606q13.818 0 23.542 3.241a44.5 44.5 0 0 1 16.036 8.956 33.641 33.641 0 0 1 9.212 13.818 52.573 52.573 0 0 1 2.9 17.827 55.906 55.906 0 0 1-2.559 17.4 33.863 33.863 0 0 1-8.1 13.477 36.96 36.96 0 0 1-14.074 8.7q-8.53 3.071-20.471 3.071h-5.462zm0-70.625h3.241a12.511 12.511 0 0 0 9.468-3.838q3.668-3.838 3.668-10.662a17.228 17.228 0 0 0-3.327-10.491q-3.327-4.521-9.809-4.521h-3.241zm97.407 70.625h-34.63V12.315h33.606q13.818 0 23.542 3.241a44.5 44.5 0 0 1 16.036 8.956 33.64 33.64 0 0 1 9.212 13.818 52.571 52.571 0 0 1 2.9 17.827 55.907 55.907 0 0 1-2.559 17.4 33.863 33.863 0 0 1-8.1 13.477 36.96 36.96 0 0 1-14.074 8.7q-8.53 3.071-20.471 3.071h-5.459zm0-70.625h3.241a12.511 12.511 0 0 0 9.468-3.838q3.668-3.838 3.668-10.662a17.228 17.228 0 0 0-3.326-10.491q-3.327-4.521-9.809-4.521h-3.241zm120.437 70.625h-34.8V86.522l-31.9-74.207h36.165l6.312 19.106q1.877 5.459 3.326 10.662t2.644 9.98q1.194-4.777 2.559-9.98t3.25-10.662l6.312-19.106h35.988L467.76 86.522z" fill="#2d2d2d"/></g><g data-name="Group 15"><path data-name="Rectangle 15" fill="#fff" d="M0 40.617h509.336v165.717H0z"/><path data-name="Path 53" d="M95.019 181.558h-34.63v-51.686H43.671v51.689H9.041V52.932h34.63V98.48h16.718V52.932h34.63zm110.372 0h-35.824l-2.9-16.377h-23.03l-2.9 16.377h-35.826l29.685-128.626h41.283zm-42.818-43.842l-4.947-34.63q-.512-3.241-1.024-7.677t-1.365-11.771q-.853 7.335-1.279 11.771t-.938 7.677l-5.288 34.63zm87.338 43.842h-34.63V52.932h33.606q13.818 0 23.542 3.241a44.5 44.5 0 0 1 16.036 8.956 33.641 33.641 0 0 1 9.212 13.818 52.573 52.573 0 0 1 2.9 17.827 55.906 55.906 0 0 1-2.559 17.4 33.863 33.863 0 0 1-8.1 13.477 36.96 36.96 0 0 1-14.074 8.7q-8.53 3.071-20.471 3.071h-5.462zm0-70.625h3.241a12.511 12.511 0 0 0 9.468-3.838q3.668-3.838 3.668-10.662a17.228 17.228 0 0 0-3.327-10.491q-3.327-4.521-9.809-4.521h-3.241zm97.407 70.625h-34.63V52.932h33.606q13.818 0 23.542 3.241a44.5 44.5 0 0 1 16.036 8.956 33.64 33.64 0 0 1 9.212 13.818 52.571 52.571 0 0 1 2.9 17.827 55.907 55.907 0 0 1-2.559 17.4 33.863 33.863 0 0 1-8.1 13.477 36.96 36.96 0 0 1-14.074 8.7q-8.53 3.071-20.471 3.071h-5.459zm0-70.625h3.241a12.511 12.511 0 0 0 9.468-3.838q3.668-3.838 3.668-10.662a17.228 17.228 0 0 0-3.326-10.491q-3.327-4.521-9.809-4.521h-3.241zm120.437 70.625h-34.8v-54.419l-31.9-74.207h36.165l6.312 19.106q1.877 5.459 3.326 10.662t2.644 9.98q1.194-4.777 2.559-9.98t3.25-10.662l6.312-19.106h35.988l-29.851 74.207z" fill="#2d2d2d"/></g><g data-name="Group 16"><path data-name="Rectangle 15" fill="#fff" d="M0 97.481h509.336v165.717H0z"/><path data-name="Path 52" d="M95.019 238.422h-34.63v-51.686H43.671v51.689H9.041V109.796h34.63v45.548h16.718v-45.548h34.63zm110.372 0h-35.824l-2.9-16.377h-23.03l-2.9 16.377h-35.826l29.685-128.626h41.283zm-42.818-43.842l-4.947-34.63q-.512-3.241-1.024-7.677t-1.365-11.771q-.853 7.335-1.279 11.771t-.938 7.677l-5.288 34.63zm87.338 43.842h-34.63V109.796h33.606q13.818 0 23.542 3.241a44.5 44.5 0 0 1 16.036 8.956 33.641 33.641 0 0 1 9.212 13.818 52.573 52.573 0 0 1 2.9 17.827 55.906 55.906 0 0 1-2.559 17.4 33.863 33.863 0 0 1-8.1 13.477 36.96 36.96 0 0 1-14.074 8.7q-8.53 3.071-20.471 3.071h-5.462zm0-70.625h3.241a12.511 12.511 0 0 0 9.468-3.838q3.668-3.838 3.668-10.662a17.228 17.228 0 0 0-3.327-10.491q-3.327-4.521-9.809-4.521h-3.241zm97.407 70.625h-34.63V109.796h33.606q13.818 0 23.542 3.241a44.5 44.5 0 0 1 16.036 8.956 33.64 33.64 0 0 1 9.212 13.818 52.571 52.571 0 0 1 2.9 17.827 55.907 55.907 0 0 1-2.559 17.4 33.863 33.863 0 0 1-8.1 13.477 36.96 36.96 0 0 1-14.074 8.7q-8.53 3.071-20.471 3.071h-5.459zm0-70.625h3.241a12.511 12.511 0 0 0 9.468-3.838q3.668-3.838 3.668-10.662a17.228 17.228 0 0 0-3.326-10.491q-3.327-4.521-9.809-4.521h-3.241zm120.437 70.625h-34.8v-54.419l-31.9-74.207h36.165l6.312 19.106q1.877 5.459 3.326 10.662t2.644 9.98q1.194-4.777 2.559-9.98t3.25-10.662l6.312-19.106h35.988l-29.851 74.207z" fill="#2d2d2d"/></g><g data-name="Group 17"><path data-name="Rectangle 15" fill="#fff" d="M0 170.591h509.336v165.717H0z"/><path data-name="Path 51" d="M95.019 311.532h-34.63v-51.686H43.671v51.689H9.041V182.906h34.63v45.548h16.718v-45.548h34.63zm110.372 0h-35.824l-2.9-16.377h-23.03l-2.9 16.377h-35.826l29.685-128.626h41.283zm-42.818-43.842l-4.947-34.63q-.512-3.241-1.024-7.677t-1.365-11.771q-.853 7.335-1.279 11.771t-.938 7.677l-5.288 34.63zm87.338 43.842h-34.63V182.906h33.606q13.818 0 23.542 3.241a44.5 44.5 0 0 1 16.036 8.956 33.641 33.641 0 0 1 9.212 13.818 52.573 52.573 0 0 1 2.9 17.827 55.906 55.906 0 0 1-2.559 17.4 33.863 33.863 0 0 1-8.1 13.477 36.96 36.96 0 0 1-14.074 8.7q-8.53 3.071-20.471 3.071h-5.462zm0-70.625h3.241a12.511 12.511 0 0 0 9.468-3.838q3.668-3.838 3.668-10.662a17.228 17.228 0 0 0-3.327-10.491q-3.327-4.521-9.809-4.521h-3.241zm97.407 70.625h-34.63V182.906h33.606q13.818 0 23.542 3.241a44.5 44.5 0 0 1 16.036 8.956 33.64 33.64 0 0 1 9.212 13.818 52.571 52.571 0 0 1 2.9 17.827 55.907 55.907 0 0 1-2.559 17.4 33.863 33.863 0 0 1-8.1 13.477 36.96 36.96 0 0 1-14.074 8.7q-8.53 3.071-20.471 3.071h-5.459zm0-70.625h3.241a12.511 12.511 0 0 0 9.468-3.838q3.668-3.838 3.668-10.662a17.228 17.228 0 0 0-3.326-10.491q-3.327-4.521-9.809-4.521h-3.241zm120.437 70.625h-34.8v-54.419l-31.9-74.207h36.165l6.312 19.106q1.877 5.459 3.326 10.662t2.644 9.98q1.194-4.777 2.559-9.98t3.25-10.662l6.312-19.106h35.988l-29.851 74.207z" fill="#2d2d2d"/></g><g data-name="Group 18"><path data-name="Rectangle 15" fill="#fff" d="M0 259.948h509.336v165.717H0z"/><path data-name="Path 50" d="M95.019 400.889h-34.63v-51.686H43.671v51.689H9.041V272.263h34.63v45.548h16.718v-45.548h34.63zm110.372 0h-35.824l-2.9-16.377h-23.03l-2.9 16.377h-35.826l29.685-128.626h41.283zm-42.818-43.842l-4.947-34.63q-.512-3.241-1.024-7.677t-1.365-11.771q-.853 7.335-1.279 11.771t-.938 7.677l-5.288 34.63zm87.338 43.842h-34.63V272.263h33.606q13.818 0 23.542 3.241a44.5 44.5 0 0 1 16.036 8.956 33.641 33.641 0 0 1 9.212 13.818 52.573 52.573 0 0 1 2.9 17.827 55.906 55.906 0 0 1-2.559 17.4 33.863 33.863 0 0 1-8.1 13.477 36.96 36.96 0 0 1-14.074 8.7q-8.53 3.071-20.471 3.071h-5.462zm0-70.625h3.241a12.511 12.511 0 0 0 9.468-3.838q3.668-3.838 3.668-10.662a17.228 17.228 0 0 0-3.327-10.491q-3.327-4.521-9.809-4.521h-3.241zm97.407 70.625h-34.63V272.263h33.606q13.818 0 23.542 3.241a44.5 44.5 0 0 1 16.036 8.956 33.64 33.64 0 0 1 9.212 13.818 52.571 52.571 0 0 1 2.9 17.827 55.907 55.907 0 0 1-2.559 17.4 33.863 33.863 0 0 1-8.1 13.477 36.96 36.96 0 0 1-14.074 8.7q-8.53 3.071-20.471 3.071h-5.459zm0-70.625h3.241a12.511 12.511 0 0 0 9.468-3.838q3.668-3.838 3.668-10.662a17.228 17.228 0 0 0-3.326-10.491q-3.327-4.521-9.809-4.521h-3.241zm120.437 70.625h-34.8V346.47l-31.9-74.207h36.165l6.312 19.106q1.877 5.459 3.326 10.662t2.644 9.98q1.194-4.777 2.559-9.98t3.25-10.662l6.312-19.106h35.988L467.76 346.47z" fill="#2d2d2d"/></g><g data-name="Group 19"><path data-name="Rectangle 15" fill="#fff" d="M0 357.429h509.336v165.717H0z"/><path data-name="Path 55" d="M95.019 498.37h-34.63v-51.686H43.671v51.689H9.041V369.744h34.63v45.548h16.718v-45.548h34.63zm110.372 0h-35.824l-2.9-16.377h-23.03l-2.9 16.377h-35.826l29.685-128.626h41.283zm-42.818-43.842l-4.947-34.63q-.512-3.241-1.024-7.677t-1.365-11.771q-.853 7.335-1.279 11.771t-.938 7.677l-5.288 34.63zm87.338 43.842h-34.63V369.744h33.606q13.818 0 23.542 3.241a44.5 44.5 0 0 1 16.036 8.956 33.641 33.641 0 0 1 9.212 13.818 52.573 52.573 0 0 1 2.9 17.827 55.906 55.906 0 0 1-2.559 17.4 33.863 33.863 0 0 1-8.1 13.477 36.96 36.96 0 0 1-14.074 8.7q-8.53 3.071-20.471 3.071h-5.462zm0-70.625h3.241a12.511 12.511 0 0 0 9.468-3.838q3.668-3.838 3.668-10.662a17.228 17.228 0 0 0-3.327-10.491q-3.327-4.521-9.809-4.521h-3.241zm97.407 70.625h-34.63V369.744h33.606q13.818 0 23.542 3.241a44.5 44.5 0 0 1 16.036 8.956 33.64 33.64 0 0 1 9.212 13.818 52.571 52.571 0 0 1 2.9 17.827 55.907 55.907 0 0 1-2.559 17.4 33.863 33.863 0 0 1-8.1 13.477 36.96 36.96 0 0 1-14.074 8.7q-8.53 3.071-20.471 3.071h-5.459zm0-70.625h3.241a12.511 12.511 0 0 0 9.468-3.838q3.668-3.838 3.668-10.662a17.228 17.228 0 0 0-3.326-10.491q-3.327-4.521-9.809-4.521h-3.241zm120.437 70.625h-34.8v-54.419l-31.9-74.207h36.165l6.312 19.106q1.877 5.459 3.326 10.662t2.644 9.98q1.194-4.777 2.559-9.98t3.25-10.662l6.312-19.106h35.988l-29.851 74.207z" fill="#2d2d2d"/></g><g data-name="Group 20"><path data-name="Rectangle 15" fill="#fff" d="M0 471.156h509.336v165.717H0z"/><path data-name="Path 49" d="M95.019 612.097h-34.63v-51.686H43.671V612.1H9.041V483.471h34.63v45.548h16.718v-45.548h34.63zm110.372 0h-35.824l-2.9-16.377h-23.03l-2.9 16.377h-35.826l29.685-128.626h41.283zm-42.818-43.842l-4.947-34.63q-.512-3.241-1.024-7.677t-1.365-11.771q-.853 7.335-1.279 11.771t-.938 7.677l-5.288 34.63zm87.338 43.842h-34.63V483.471h33.606q13.818 0 23.542 3.241a44.5 44.5 0 0 1 16.036 8.956 33.641 33.641 0 0 1 9.212 13.818 52.573 52.573 0 0 1 2.9 17.827 55.906 55.906 0 0 1-2.559 17.4 33.863 33.863 0 0 1-8.1 13.477 36.96 36.96 0 0 1-14.074 8.7q-8.53 3.071-20.471 3.071h-5.462zm0-70.625h3.241a12.511 12.511 0 0 0 9.468-3.838q3.668-3.838 3.668-10.662a17.228 17.228 0 0 0-3.327-10.491q-3.327-4.521-9.809-4.521h-3.241zm97.407 70.625h-34.63V483.471h33.606q13.818 0 23.542 3.241a44.5 44.5 0 0 1 16.036 8.956 33.64 33.64 0 0 1 9.212 13.818 52.571 52.571 0 0 1 2.9 17.827 55.907 55.907 0 0 1-2.559 17.4 33.863 33.863 0 0 1-8.1 13.477 36.96 36.96 0 0 1-14.074 8.7q-8.53 3.071-20.471 3.071h-5.459zm0-70.625h3.241a12.511 12.511 0 0 0 9.468-3.838q3.668-3.838 3.668-10.662a17.228 17.228 0 0 0-3.326-10.491q-3.327-4.521-9.809-4.521h-3.241zm120.437 70.625h-34.8v-54.419l-31.9-74.207h36.165l6.312 19.106q1.877 5.459 3.326 10.662t2.644 9.98q1.194-4.777 2.559-9.98t3.25-10.662l6.312-19.106h35.988l-29.851 74.207z" fill="#2d2d2d"/></g><path data-name="Path 56" d="M69.855 721.762h-24.57v-36.674H33.423v36.675H8.855V630.5h24.568v32.317h11.862V630.5h24.57zm116.439-45.631a70.143 70.143 0 0 1-2.481 19.245 46.256 46.256 0 0 1-7.081 14.948 32.463 32.463 0 0 1-11.014 9.623 31.408 31.408 0 0 1-28.383 0 32.656 32.656 0 0 1-10.954-9.623 46.257 46.257 0 0 1-7.081-14.948 70.143 70.143 0 0 1-2.481-19.245 70.143 70.143 0 0 1 2.481-19.245 46.257 46.257 0 0 1 7.08-14.949 33.3 33.3 0 0 1 10.954-9.683 30.917 30.917 0 0 1 28.383 0 33.094 33.094 0 0 1 11.015 9.683 46.256 46.256 0 0 1 7.081 14.948 70.143 70.143 0 0 1 2.481 19.246zm-25.539 0q0-11.741-2.421-18.035t-6.779-6.294q-4.357 0-6.778 6.294t-2.422 18.035q0 11.741 2.421 17.974t6.779 6.232q4.357 0 6.778-6.233t2.422-17.973zm139.678 0a70.142 70.142 0 0 1-2.478 19.245 46.258 46.258 0 0 1-7.081 14.948 32.464 32.464 0 0 1-11.019 9.623 31.408 31.408 0 0 1-28.383 0 32.656 32.656 0 0 1-10.954-9.623 46.256 46.256 0 0 1-7.081-14.948 70.143 70.143 0 0 1-2.482-19.245 70.143 70.143 0 0 1 2.481-19.245 46.256 46.256 0 0 1 7.083-14.949 33.3 33.3 0 0 1 10.954-9.683 30.917 30.917 0 0 1 28.383 0 33.1 33.1 0 0 1 11.015 9.683 46.258 46.258 0 0 1 7.084 14.949 70.142 70.142 0 0 1 2.478 19.245zm-25.539 0q0-11.741-2.421-18.035t-6.778-6.294q-4.357 0-6.778 6.294t-2.421 18.035q0 11.741 2.421 17.974t6.778 6.232q4.357 0 6.778-6.233t2.421-17.973zm97.073 45.631h-24.571V630.5h23.845a53.18 53.18 0 0 1 16.7 2.3 31.571 31.571 0 0 1 11.378 6.355 23.868 23.868 0 0 1 6.536 9.8 37.3 37.3 0 0 1 2.058 12.649 39.666 39.666 0 0 1-1.816 12.346 24.027 24.027 0 0 1-5.749 9.562 26.223 26.223 0 0 1-9.986 6.173 43.011 43.011 0 0 1-14.525 2.179h-3.873zm0-50.11h2.3a8.877 8.877 0 0 0 6.718-2.723q2.6-2.723 2.6-7.565a12.224 12.224 0 0 0-2.36-7.444 8.094 8.094 0 0 0-6.96-3.208h-2.3zm79.038 19.246q7.383 9.925 15.735 9.925a7.675 7.675 0 0 0 5.144-1.695 5.33 5.33 0 0 0 2-4.236q0-3.631-4.357-7.141l-3.994-3.147q-7.988-6.173-11.438-12.164a26.793 26.793 0 0 1-3.45-13.617 32.11 32.11 0 0 1 2.118-11.741 29.655 29.655 0 0 1 5.87-9.5 27.95 27.95 0 0 1 8.836-6.415 25.552 25.552 0 0 1 10.886-2.362 37.7 37.7 0 0 1 17.672 4.72v27.839a27.238 27.238 0 0 0-6.839-7.323 12.989 12.989 0 0 0-7.565-2.723 6.842 6.842 0 0 0-4.66 1.634 5.042 5.042 0 0 0-1.876 3.934q0 3.631 4.963 7.262l3.994 2.9q7.747 5.689 11.136 11.559a26.993 26.993 0 0 1 3.389 13.738 34.1 34.1 0 0 1-2.179 12.406 30.939 30.939 0 0 1-5.991 9.8 26.237 26.237 0 0 1-9.2 6.476 29.432 29.432 0 0 1-11.68 2.3A50.486 50.486 0 0 1 451 719.454z" fill="none" stroke="#2d2d2d" stroke-width="2"/></svg>